<?xml version="1.0" standalone="no"?><!-- Generator: Gravit.io -->
<svg xmlns="http://www.w3.org/2000/svg" xmlns:xlink="http://www.w3.org/1999/xlink"
  style="isolation:isolate" viewBox="0 0 228 120" width="228" height="120">
  <defs>
    <clipPath id="_clipPath_v0Vc2qIQ5XHZlJRLbTPEXqcbKhcz17EY">
      <rect width="228" height="120" />
    </clipPath>
  </defs>
  <g clip-path="url(#_clipPath_v0Vc2qIQ5XHZlJRLbTPEXqcbKhcz17EY)">
    <g>
      <path
        d=" M 204 48 C 192.817 48 183.42 40.351 180.756 30 L 153.248 30 C 147.382 30 142.376 34.241 141.412 40.027 L 140.425 45.946 C 139.489 51.565 136.646 56.455 132.626 60 C 136.646 63.545 139.489 68.435 140.425 74.054 L 141.412 79.973 C 142.376 85.759 147.382 90 153.248 90 L 156.756 90 C 159.42 79.649 168.817 72 180 72 C 193.255 72 204 82.745 204 96 C 204 109.255 193.255 120 180 120 C 168.817 120 159.42 112.351 156.756 102 L 153.248 102 C 141.516 102 131.504 93.518 129.575 81.946 L 128.588 76.027 C 127.624 70.241 122.618 66 116.752 66 L 107.244 66 C 104.58 76.351 95.183 84 84 84 C 72.817 84 63.42 76.351 60.756 66 L 47.244 66 C 44.58 76.351 35.183 84 24 84 C 10.745 84 0 73.255 0 60 C 0 46.745 10.745 36 24 36 C 35.183 36 44.58 43.649 47.244 54 L 60.756 54 C 63.42 43.649 72.817 36 84 36 C 95.183 36 104.58 43.649 107.244 54 L 116.752 54 C 122.618 54 127.624 49.759 128.588 43.973 L 129.575 38.054 C 131.504 26.482 141.516 18 153.248 18 L 180.756 18 C 183.42 7.649 192.817 0 204 0 C 217.255 0 228 10.745 228 24 C 228 37.255 217.255 48 204 48 Z  M 204 36 C 210.627 36 216 30.627 216 24 C 216 17.373 210.627 12 204 12 C 197.373 12 192 17.373 192 24 C 192 30.627 197.373 36 204 36 Z  M 24 72 C 30.627 72 36 66.627 36 60 C 36 53.373 30.627 48 24 48 C 17.373 48 12 53.373 12 60 C 12 66.627 17.373 72 24 72 Z  M 96 60 C 96 66.627 90.627 72 84 72 C 77.373 72 72 66.627 72 60 C 72 53.373 77.373 48 84 48 C 90.627 48 96 53.373 96 60 Z  M 192 96 C 192 102.627 186.627 108 180 108 C 173.373 108 168 102.627 168 96 C 168 89.373 173.373 84 180 84 C 186.627 84 192 89.373 192 96 Z "
        fill-rule="evenodd" fill="#00b4fb" />
    </g>
  </g>
</svg>