<?xml version="1.0" standalone="no"?><!-- Generator: Gravit.io --><svg xmlns="http://www.w3.org/2000/svg" xmlns:xlink="http://www.w3.org/1999/xlink" style="isolation:isolate" viewBox="0 0 600 200" width="600" height="200"><defs><filter id="yEkBHIxZ2clEqtsxaKqZcrmP3T2yRCPl" x="42" y="-15.75" width="544" height="229" filterUnits="userSpaceOnUse"><feGaussianBlur xmlns="http://www.w3.org/2000/svg" stdDeviation="21.46804531419514"/></filter></defs><g filter="url(#yEkBHIxZ2clEqtsxaKqZcrmP3T2yRCPl)"><ellipse vector-effect="non-scaling-stroke" cx="0" cy="0" rx="1" ry="1" transform="matrix(222,0,0,64.5,314,98.75)" fill="rgb(0,183,255)" fill-opacity="0.08"/></g><line x1="96" y1="103.25" x2="529" y2="103.25" vector-effect="non-scaling-stroke" stroke-width="5" stroke="rgb(160,228,255)" stroke-linejoin="miter" stroke-linecap="square" stroke-miterlimit="3"/><path d=" M 190.5 53 C 189.281 71.016 183.198 99.531 166 103" fill="none" vector-effect="non-scaling-stroke" stroke-width="4" stroke="rgb(160,228,255)" stroke-linejoin="miter" stroke-linecap="square" stroke-miterlimit="3"/><path d=" M 327.75 53.25 C 326.531 71.266 320.447 99.781 303.25 103.25" fill="none" vector-effect="non-scaling-stroke" stroke-width="4" stroke="rgb(160,228,255)" stroke-linejoin="miter" stroke-linecap="square" stroke-miterlimit="3"/><path d=" M 377.5 103.25 C 379.515 116.672 389.571 137.915 418 140.5" fill="none" vector-effect="non-scaling-stroke" stroke-width="4" stroke="rgb(160,228,255)" stroke-linejoin="miter" stroke-linecap="square" stroke-miterlimit="3"/><path d=" M 338 48.75 C 344.199 42.312 355.259 25.784 382.5 19.75" fill="none" vector-effect="non-scaling-stroke" stroke-width="4" stroke="rgb(160,228,255)" stroke-linejoin="miter" stroke-linecap="square" stroke-miterlimit="3"/><path d=" M 338 53 C 344.199 55.386 355.259 61.513 382.5 63.75" fill="none" vector-effect="non-scaling-stroke" stroke-width="2" stroke-dasharray="5,5,5,5" stroke="rgb(160,228,255)" stroke-linejoin="miter" stroke-linecap="square" stroke-miterlimit="3"/><path d=" M 190.5 103 C 189.281 121.016 220.75 113.5 228 128" fill="none" vector-effect="non-scaling-stroke" stroke-width="4" stroke="rgb(160,228,255)" stroke-linejoin="miter" stroke-linecap="square" stroke-miterlimit="3"/><path d=" M 241 142 C 269.906 149.156 286.5 153.375 287 140.5" fill="none" vector-effect="non-scaling-stroke" stroke-width="4" stroke="rgb(160,228,255)" stroke-linejoin="miter" stroke-linecap="square" stroke-miterlimit="3"/><path d=" M 238 131 C 244.688 96.328 296.971 108.83 287 140.5" fill="none" vector-effect="non-scaling-stroke" stroke-width="4" stroke="rgb(160,228,255)" stroke-linejoin="miter" stroke-linecap="square" stroke-miterlimit="3"/><rect x="58" y="90.5" width="27" height="25" transform="matrix(1,0,0,1,0,0)" fill="rgb(0,180,251)"/><rect x="177" y="28" width="27" height="25" transform="matrix(1,0,0,1,0,0)" fill="rgb(0,180,251)"/><rect x="214" y="128" width="27" height="25" transform="matrix(1,0,0,1,0,0)" fill="rgb(0,180,251)"/><rect x="273.5" y="115.5" width="27" height="25" transform="matrix(1,0,0,1,0,0)" fill="rgb(0,180,251)"/><rect x="314" y="36" width="27" height="25" transform="matrix(1,0,0,1,0,0)" fill="rgb(0,180,251)"/><rect x="369" y="48.75" width="27" height="25" transform="matrix(1,0,0,1,0,0)" fill="rgb(0,180,251)"/><rect x="412" y="128" width="27" height="25" transform="matrix(1,0,0,1,0,0)" fill="rgb(0,180,251)"/><rect x="541" y="90.5" width="27" height="25" transform="matrix(1,0,0,1,0,0)" fill="rgb(0,180,251)"/><rect x="369" y="7.25" width="27" height="25" transform="matrix(1,0,0,1,0,0)" fill="rgb(0,180,251)"/></svg>